Coordinates
version=1
nRows=24
nColumns=19
inDegrees=yes

Units are S.I. units (second, meters, Newtons, ...)
If the header above contains a line with 'inDegrees', this indicates whether rotational values are in degrees (yes) or radians (no).

endheader
time	pelvis_tilt	pelvis_list	pelvis_rotation	pelvis_tx	pelvis_ty	pelvis_tz	hip_flexion_r	hip_adduction_r	hip_rotation_r	knee_angle_r	knee_angle_r_beta	ankle_angle_r	hip_flexion_l	hip_adduction_l	hip_rotation_l	knee_angle_l	knee_angle_l_beta	ankle_angle_l
     11.82000000	     -3.15944537	     -9.29981041	     -1.92129713	      2.45863077	      0.93879975	      1.07449491	     23.94242042	     13.39880901	    -14.98983733	      9.28235576	      0.16200767	      7.62461896	    -18.35511724	    -15.43409797	    -15.09151167	     59.34124430	      1.03570010	     -9.29021456
     11.82666667	     -2.37079779	    -10.01662423	     -1.79231550	      2.45827231	      0.93453748	      1.07464571	     23.42861697	     13.87724617	    -15.99846798	     11.75987875	      0.20524860	      7.34959845	    -17.96801895	    -16.47477871	    -14.30178636	     63.13083676	      1.10184096	     -8.67376222
     11.83333333	     -1.64772461	    -10.75375802	     -1.72742859	      2.45774916	      0.92979371	      1.07474646	     23.08132381	     14.30344243	    -17.07621888	     14.65828243	      0.25583529	      7.12492267	    -17.44960347	    -17.52517239	    -13.58985757	     66.89975235	      1.16762095	     -8.03852484
     11.84000000	     -0.58681227	    -11.64193484	     -1.77800574	      2.45716128	      0.92515850	      1.07479802	     22.32268664	     14.89420987	    -17.94968338	     17.67580576	      0.30850101	      6.93589557	    -17.37565278	    -18.67436624	    -13.18841931	     70.49821957	      1.23042605	     -7.33699056
     11.84666667	     -0.23240102	    -12.27068096	     -1.79833424	      2.45619547	      0.91963623	      1.07466510	     22.45306074	     15.07663319	    -18.92339349	     21.09625974	      0.36819919	      7.08367466	    -16.21491203	    -19.54087165	    -12.30483921	     74.21667261	      1.29532530	     -6.61924215
     11.85333333	      0.77711234	    -13.16281935	     -1.98783223	      2.45521321	      0.91475991	      1.07456271	     21.70371500	     15.64324171	    -19.43808517	     24.33422308	      0.42471231	      7.45721557	    -15.97640448	    -20.64363797	    -12.00988910	     77.63823370	      1.35504280	     -5.79314523
     11.86000000	      0.91448339	    -13.66505587	     -2.11647689	      2.45378337	      0.90910558	      1.07428534	     21.96306905	     15.69321338	    -20.01676234	     27.80276942	      0.48524987	      8.24410835	    -14.35710469	    -21.27804887	    -10.98701133	     81.17318784	      1.41673939	     -4.94604314
     11.86666667	      1.25378611	    -14.20191489	     -2.37871581	      2.45220326	      0.90392313	      1.07408208	     21.84478829	     15.90275905	    -20.14089896	     31.06048172	      0.54210767	      9.39555184	    -12.98366961	    -21.91474153	    -10.20299361	     84.48301860	      1.47450684	     -4.04124398
     11.87333333	      1.44511149	    -14.59727828	     -2.67357585	      2.45040065	      0.89901751	      1.07389192	     21.74971205	     16.03447930	    -20.00927322	     34.13508045	      0.59576954	     10.88884358	    -11.29641682	    -22.36312771	     -9.29164488	     87.63669972	      1.52954896	     -3.10427059
     11.88000000	      1.51150583	    -14.81165482	     -2.96051443	      2.44835483	      0.89452763	      1.07372747	     21.63646840	     16.06268309	    -19.62800744	     36.95535924	      0.64499270	     12.65817154	     -9.28200338	    -22.57447303	     -8.20432178	     90.60910785	      1.58142726	     -2.18250255
     11.88666667	      2.08723066	    -15.16838288	     -3.23400522	      2.44641024	      0.89116502	      1.07364484	     20.67205239	     16.37908957	    -18.94879558	     39.25060830	      0.68505235	     14.71719179	     -7.89050335	    -22.96900303	     -7.39853329	     93.21048469	      1.62682986	     -1.24938193
     11.89333333	      0.89890847	    -14.63372052	     -3.44472691	      2.44382025	      0.88671962	      1.07354337	     21.63841669	     15.73900500	    -18.39113191	     41.57818648	      0.72567625	     16.65518690	     -3.81308409	    -22.23584564	     -5.42854910	     95.94514910	      1.67455875	     -0.49367233
     11.90000000	      0.46075527	    -14.25040967	     -3.49706998	      2.44141843	      0.88382016	      1.07334751	     21.44952096	     15.34424715	    -17.69483939	     43.26184150	      0.75506157	     18.71623447	     -0.63725666	    -21.65332612	     -3.77106752	     98.18849194	      1.71371247	      0.17413668
     11.90666667	     -0.09799778	    -13.71477140	     -3.40573708	      2.43910911	      0.88151179	      1.07313140	     21.14676449	     14.80533617	    -17.06771134	     44.50042728	      0.77667897	     20.65438877	      2.80552063	    -20.82457281	     -1.98002657	    100.11115369	      1.74726925	      0.75770384
     11.91333333	     -0.65178189	    -13.06384909	     -3.13546548	      2.43696551	      0.87997945	      1.07277055	     20.57833378	     14.13497235	    -16.55993181	     45.25358681	      0.78982409	     22.44815757	      6.31486606	    -19.78247122	     -0.16008798	    101.64307811	      1.77400637	      1.20228633
     11.92000000	     -0.83343472	    -12.35174584	     -2.60097335	      2.43518276	      0.87967344	      1.07213166	     19.30716791	     13.35679215	    -16.24077223	     45.45578701	      0.79335315	     23.98594316	      9.39135944	    -18.55349950	      1.61902487	    102.69342758	      1.79233843	      1.54247104
     11.92666667	     -1.20832048	    -11.60086558	     -2.01503363	      2.43376611	      0.87980631	      1.07154640	     17.99074655	     12.56426064	    -16.03529838	     45.21969510	      0.78923257	     25.29939716	     12.59857873	    -17.26926199	      3.23939550	    103.35024008	      1.80380197	      1.78943624
     11.93333333	     -1.58968087	    -10.84246867	     -1.39645320	      2.43280648	      0.88057839	      1.07099084	     16.42246245	     11.81213038	    -15.87604295	     44.51690442	      0.77696655	     26.27378855	     15.64467802	    -15.95540368	      4.61918375	    103.56384565	      1.80753009	      1.99221396
     11.94000000	     -1.82831079	    -10.03662162	     -0.67176255	      2.43237289	      0.88218380	      1.07041113	     14.45582230	     11.02199079	    -15.88354499	     43.38211972	      0.75716083	     26.89714037	     18.35144111	    -14.59258952	      5.76473390	    103.30292019	      1.80297608	      2.16004364
     11.94666667	     -2.00779696	     -9.20431462	      0.06119213	      2.43246952	      0.88442108	      1.06987688	     12.20784767	     10.25874588	    -15.95289886	     41.85920810	      0.73058100	     27.14257151	     20.75796581	    -13.23765853	      6.60972702	    102.60345661	      1.79076814	      2.31486951
     11.95333333	     -2.10059729	     -8.34936253	      0.81127593	      2.43301664	      0.88727184	      1.06940516	      9.68829937	      9.53439351	    -16.09697905	     39.98707519	      0.69790612	     26.95210637	     22.83648280	    -11.90791360	      7.18969163	    101.48206650	      1.77119619	      2.54414748
     11.96000000	     -2.21077211	     -7.44142145	      1.44796680	      2.43401321	      0.89055826	      1.06918829	      7.04876839	      8.84972999	    -16.14526653	     37.84602554	      0.66053775	     26.30944793	     24.66483076	    -10.64895622	      7.38608783	     99.96302454	      1.74468391	      2.75580949
     11.96666667	     -2.75524274	     -6.50295307	      1.78500105	      2.43531337	      0.89368003	      1.06931707	      4.85654275	      8.20384531	    -15.88924991	     35.64610523	      0.62214190	     25.23610546	     26.67720103	     -9.50121213	      7.14304935	     98.10568472	      1.71226721	      3.13938761
     11.97333333	     -1.76895106	     -5.42711789	      2.36452971	      2.43737880	      0.89897957	      1.06940482	      0.72595983	      7.49009581	    -16.00592991	     32.85210850	      0.57337746	     23.62332480	     26.70615582	     -8.42294569	      6.60599725	     95.72997873	      1.67080332	      3.60121779
